<mxfile host="app.diagrams.net" agent="Mozilla/5.0 (Windows NT 10.0; Win64; x64; rv:133.0) Gecko/20100101 Firefox/133.0" version="26.0.4">
  <diagram name="PÃ¡gina-1" id="dqLcOb5ojzZijLl2xL6k">
    <mxGraphModel dx="1195" dy="588" grid="1" gridSize="10" guides="1" tooltips="1" connect="1" arrows="1" fold="1" page="1" pageScale="1" pageWidth="827" pageHeight="1169" math="0" shadow="0">
      <root>
        <mxCell id="0" />
        <mxCell id="1" parent="0" />
        <mxCell id="axeA_orivt2Zv7nJtLyO-1" value="Passageiro" style="shape=umlActor;verticalLabelPosition=bottom;verticalAlign=top;html=1;outlineConnect=0;" parent="1" vertex="1">
          <mxGeometry x="130" y="210" width="30" height="60" as="geometry" />
        </mxCell>
        <mxCell id="axeA_orivt2Zv7nJtLyO-3" value="Tela Visualizacao Voos Passageiro" style="rounded=0;whiteSpace=wrap;html=1;" parent="1" vertex="1">
          <mxGeometry x="270" y="215" width="120" height="50" as="geometry" />
        </mxCell>
        <mxCell id="axeA_orivt2Zv7nJtLyO-4" value="Tela Ver Voo" style="rounded=0;whiteSpace=wrap;html=1;" parent="1" vertex="1">
          <mxGeometry x="440" y="215" width="120" height="50" as="geometry" />
        </mxCell>
        <mxCell id="axeA_orivt2Zv7nJtLyO-9" value="" style="endArrow=none;dashed=1;html=1;rounded=0;entryX=0.5;entryY=0;entryDx=0;entryDy=0;" parent="1" target="axeA_orivt2Zv7nJtLyO-8" edge="1">
          <mxGeometry width="50" height="50" relative="1" as="geometry">
            <mxPoint x="140" y="290" as="sourcePoint" />
            <mxPoint x="140" y="650" as="targetPoint" />
          </mxGeometry>
        </mxCell>
        <mxCell id="axeA_orivt2Zv7nJtLyO-8" value="" style="rounded=1;whiteSpace=wrap;html=1;" parent="1" vertex="1">
          <mxGeometry x="135" y="300" width="10" height="370" as="geometry" />
        </mxCell>
        <mxCell id="axeA_orivt2Zv7nJtLyO-15" value="" style="endArrow=none;dashed=1;html=1;rounded=0;exitX=0.5;exitY=1;exitDx=0;exitDy=0;entryX=0.5;entryY=0;entryDx=0;entryDy=0;" parent="1" source="SoAmH-RW295D1ajEGFki-13" target="axeA_orivt2Zv7nJtLyO-65" edge="1">
          <mxGeometry width="50" height="50" relative="1" as="geometry">
            <mxPoint x="929.76" y="265" as="sourcePoint" />
            <mxPoint x="929.76" y="515" as="targetPoint" />
          </mxGeometry>
        </mxCell>
        <mxCell id="axeA_orivt2Zv7nJtLyO-54" value="" style="rounded=1;whiteSpace=wrap;html=1;" parent="1" vertex="1">
          <mxGeometry x="325" y="318" width="10" height="52" as="geometry" />
        </mxCell>
        <mxCell id="axeA_orivt2Zv7nJtLyO-60" value="" style="endArrow=classic;html=1;rounded=0;exitX=1.085;exitY=0.449;exitDx=0;exitDy=0;exitPerimeter=0;entryX=0;entryY=0;entryDx=0;entryDy=0;" parent="1" target="axeA_orivt2Zv7nJtLyO-54" edge="1">
          <mxGeometry width="50" height="50" relative="1" as="geometry">
            <mxPoint x="145.8499999999999" y="318.59000000000015" as="sourcePoint" />
            <mxPoint x="690" y="309" as="targetPoint" />
          </mxGeometry>
        </mxCell>
        <mxCell id="axeA_orivt2Zv7nJtLyO-61" value="" style="endArrow=none;html=1;rounded=0;entryX=0;entryY=1;entryDx=0;entryDy=0;dashed=1;endFill=0;startArrow=open;startFill=0;" parent="1" target="axeA_orivt2Zv7nJtLyO-54" edge="1">
          <mxGeometry width="50" height="50" relative="1" as="geometry">
            <mxPoint x="146" y="370" as="sourcePoint" />
            <mxPoint x="635" y="368" as="targetPoint" />
          </mxGeometry>
        </mxCell>
        <mxCell id="axeA_orivt2Zv7nJtLyO-63" value="&lt;font&gt;1: Inicializar tela()&lt;/font&gt;" style="text;html=1;align=center;verticalAlign=middle;whiteSpace=wrap;rounded=0;fontSize=10;" parent="1" vertex="1">
          <mxGeometry x="156" y="300" width="160" height="20" as="geometry" />
        </mxCell>
        <mxCell id="axeA_orivt2Zv7nJtLyO-65" value="" style="rounded=1;whiteSpace=wrap;html=1;" parent="1" vertex="1">
          <mxGeometry x="645" y="318" width="10" height="52" as="geometry" />
        </mxCell>
        <mxCell id="axeA_orivt2Zv7nJtLyO-66" value="" style="endArrow=classic;html=1;rounded=0;exitX=1;exitY=0;exitDx=0;exitDy=0;entryX=0;entryY=0;entryDx=0;entryDy=0;" parent="1" source="axeA_orivt2Zv7nJtLyO-54" target="axeA_orivt2Zv7nJtLyO-65" edge="1">
          <mxGeometry width="50" height="50" relative="1" as="geometry">
            <mxPoint x="624" y="318.65999999999997" as="sourcePoint" />
            <mxPoint x="820" y="320" as="targetPoint" />
          </mxGeometry>
        </mxCell>
        <mxCell id="axeA_orivt2Zv7nJtLyO-67" value="" style="endArrow=none;html=1;rounded=0;entryX=0;entryY=1;entryDx=0;entryDy=0;dashed=1;endFill=0;startArrow=open;startFill=0;exitX=1;exitY=1;exitDx=0;exitDy=0;" parent="1" source="axeA_orivt2Zv7nJtLyO-54" target="axeA_orivt2Zv7nJtLyO-65" edge="1">
          <mxGeometry width="50" height="50" relative="1" as="geometry">
            <mxPoint x="623" y="368" as="sourcePoint" />
            <mxPoint x="925" y="368" as="targetPoint" />
          </mxGeometry>
        </mxCell>
        <mxCell id="axeA_orivt2Zv7nJtLyO-70" value="{Voos}" style="text;html=1;align=center;verticalAlign=middle;whiteSpace=wrap;rounded=0;fontSize=10;" parent="1" vertex="1">
          <mxGeometry x="349" y="368" width="130" height="20" as="geometry" />
        </mxCell>
        <mxCell id="axeA_orivt2Zv7nJtLyO-73" value="{Voos}" style="text;html=1;align=center;verticalAlign=middle;whiteSpace=wrap;rounded=0;fontSize=10;" parent="1" vertex="1">
          <mxGeometry x="145" y="369" width="180" height="20" as="geometry" />
        </mxCell>
        <mxCell id="axeA_orivt2Zv7nJtLyO-92" value="&lt;font&gt;1.1: getVoos&lt;/font&gt;&lt;font&gt;()&lt;/font&gt;" style="text;html=1;align=center;verticalAlign=middle;whiteSpace=wrap;rounded=0;fontSize=10;" parent="1" vertex="1">
          <mxGeometry x="332" y="300" width="160" height="20" as="geometry" />
        </mxCell>
        <mxCell id="0-eEK_Ey9VHcflzUC_9f-27" value="" style="endArrow=none;dashed=1;html=1;rounded=0;exitX=0.5;exitY=1;exitDx=0;exitDy=0;" parent="1" edge="1">
          <mxGeometry width="50" height="50" relative="1" as="geometry">
            <mxPoint x="139.89000000000001" y="1160" as="sourcePoint" />
            <mxPoint x="139.89000000000001" y="1180" as="targetPoint" />
          </mxGeometry>
        </mxCell>
        <mxCell id="UyoI0o9oHa3tuSuAJXwl-8" value="" style="endArrow=none;dashed=1;html=1;rounded=0;exitX=0.5;exitY=1;exitDx=0;exitDy=0;entryX=0.5;entryY=0;entryDx=0;entryDy=0;" parent="1" source="axeA_orivt2Zv7nJtLyO-3" target="axeA_orivt2Zv7nJtLyO-54" edge="1">
          <mxGeometry width="50" height="50" relative="1" as="geometry">
            <mxPoint x="328" y="265" as="sourcePoint" />
            <mxPoint x="328" y="318" as="targetPoint" />
          </mxGeometry>
        </mxCell>
        <mxCell id="5HPJEguLjJHBQR9b3Af--21" value="" style="endArrow=none;dashed=1;html=1;rounded=0;exitX=0.5;exitY=1;exitDx=0;exitDy=0;" parent="1" source="axeA_orivt2Zv7nJtLyO-8" edge="1">
          <mxGeometry width="50" height="50" relative="1" as="geometry">
            <mxPoint x="139.87" y="380" as="sourcePoint" />
            <mxPoint x="140" y="680" as="targetPoint" />
          </mxGeometry>
        </mxCell>
        <mxCell id="bviWKVl8PhRQtDl_3QJa-5" value="" style="endArrow=none;dashed=1;html=1;rounded=0;exitX=0.5;exitY=1;exitDx=0;exitDy=0;entryX=0.5;entryY=0;entryDx=0;entryDy=0;" parent="1" target="bviWKVl8PhRQtDl_3QJa-7" edge="1">
          <mxGeometry width="50" height="50" relative="1" as="geometry">
            <mxPoint x="329.8" y="370" as="sourcePoint" />
            <mxPoint x="330" y="400" as="targetPoint" />
          </mxGeometry>
        </mxCell>
        <mxCell id="bviWKVl8PhRQtDl_3QJa-6" value="" style="endArrow=none;dashed=1;html=1;rounded=0;exitX=0.5;exitY=1;exitDx=0;exitDy=0;entryX=0.5;entryY=0;entryDx=0;entryDy=0;" parent="1" edge="1">
          <mxGeometry width="50" height="50" relative="1" as="geometry">
            <mxPoint x="649.76" y="372" as="sourcePoint" />
            <mxPoint x="649.88" y="412" as="targetPoint" />
          </mxGeometry>
        </mxCell>
        <mxCell id="bviWKVl8PhRQtDl_3QJa-7" value="" style="rounded=1;whiteSpace=wrap;html=1;" parent="1" vertex="1">
          <mxGeometry x="325" y="410" width="10" height="52" as="geometry" />
        </mxCell>
        <mxCell id="bviWKVl8PhRQtDl_3QJa-8" value="" style="rounded=1;whiteSpace=wrap;html=1;" parent="1" vertex="1">
          <mxGeometry x="645" y="410" width="10" height="52" as="geometry" />
        </mxCell>
        <mxCell id="bviWKVl8PhRQtDl_3QJa-9" value="" style="endArrow=none;dashed=1;html=1;rounded=0;exitX=0.5;exitY=1;exitDx=0;exitDy=0;entryX=0.5;entryY=0;entryDx=0;entryDy=0;" parent="1" edge="1" target="SoAmH-RW295D1ajEGFki-5">
          <mxGeometry width="50" height="50" relative="1" as="geometry">
            <mxPoint x="329.88" y="462" as="sourcePoint" />
            <mxPoint x="329.88" y="482" as="targetPoint" />
          </mxGeometry>
        </mxCell>
        <mxCell id="bviWKVl8PhRQtDl_3QJa-10" value="" style="endArrow=none;dashed=1;html=1;rounded=0;exitX=0.5;exitY=1;exitDx=0;exitDy=0;entryX=0.5;entryY=0;entryDx=0;entryDy=0;" parent="1" edge="1" target="SoAmH-RW295D1ajEGFki-6">
          <mxGeometry width="50" height="50" relative="1" as="geometry">
            <mxPoint x="649.76" y="462" as="sourcePoint" />
            <mxPoint x="649.88" y="513" as="targetPoint" />
          </mxGeometry>
        </mxCell>
        <mxCell id="bviWKVl8PhRQtDl_3QJa-11" value="" style="endArrow=classic;html=1;rounded=0;exitX=1;exitY=0;exitDx=0;exitDy=0;entryX=0;entryY=0;entryDx=0;entryDy=0;" parent="1" edge="1" target="bviWKVl8PhRQtDl_3QJa-8">
          <mxGeometry width="50" height="50" relative="1" as="geometry">
            <mxPoint x="335" y="410" as="sourcePoint" />
            <mxPoint x="495" y="410" as="targetPoint" />
          </mxGeometry>
        </mxCell>
        <mxCell id="bviWKVl8PhRQtDl_3QJa-12" value="" style="endArrow=none;html=1;rounded=0;entryX=-0.075;entryY=0.817;entryDx=0;entryDy=0;dashed=1;endFill=0;startArrow=open;startFill=0;exitX=1;exitY=1;exitDx=0;exitDy=0;entryPerimeter=0;" parent="1" edge="1" target="bviWKVl8PhRQtDl_3QJa-8">
          <mxGeometry width="50" height="50" relative="1" as="geometry">
            <mxPoint x="335" y="452" as="sourcePoint" />
            <mxPoint x="495" y="452" as="targetPoint" />
          </mxGeometry>
        </mxCell>
        <mxCell id="bviWKVl8PhRQtDl_3QJa-13" value="" style="endArrow=classic;html=1;rounded=0;exitX=1.028;exitY=0.588;exitDx=0;exitDy=0;entryX=0;entryY=0;entryDx=0;entryDy=0;exitPerimeter=0;" parent="1" edge="1">
          <mxGeometry width="50" height="50" relative="1" as="geometry">
            <mxPoint x="145.28000000000003" y="409.9999999999999" as="sourcePoint" />
            <mxPoint x="325" y="410.03999999999996" as="targetPoint" />
          </mxGeometry>
        </mxCell>
        <mxCell id="bviWKVl8PhRQtDl_3QJa-14" value="" style="endArrow=none;html=1;rounded=0;entryX=0;entryY=1;entryDx=0;entryDy=0;dashed=1;endFill=0;startArrow=open;startFill=0;" parent="1" edge="1">
          <mxGeometry width="50" height="50" relative="1" as="geometry">
            <mxPoint x="145" y="452" as="sourcePoint" />
            <mxPoint x="325" y="452" as="targetPoint" />
          </mxGeometry>
        </mxCell>
        <mxCell id="bviWKVl8PhRQtDl_3QJa-16" value="&lt;font&gt;2: Pesquisar()&lt;/font&gt;" style="text;html=1;align=center;verticalAlign=middle;whiteSpace=wrap;rounded=0;fontSize=10;" parent="1" vertex="1">
          <mxGeometry x="156" y="394" width="160" height="20" as="geometry" />
        </mxCell>
        <mxCell id="bviWKVl8PhRQtDl_3QJa-17" value="&lt;font&gt;2.1: getVoos&lt;/font&gt;&lt;font&gt;Filtro()&lt;/font&gt;" style="text;html=1;align=center;verticalAlign=middle;whiteSpace=wrap;rounded=0;fontSize=10;" parent="1" vertex="1">
          <mxGeometry x="335" y="389" width="160" height="20" as="geometry" />
        </mxCell>
        <mxCell id="bviWKVl8PhRQtDl_3QJa-18" value="{Voos}" style="text;html=1;align=center;verticalAlign=middle;whiteSpace=wrap;rounded=0;fontSize=10;" parent="1" vertex="1">
          <mxGeometry x="145" y="449" width="180" height="20" as="geometry" />
        </mxCell>
        <mxCell id="bviWKVl8PhRQtDl_3QJa-19" value="{Voos}" style="text;html=1;align=center;verticalAlign=middle;whiteSpace=wrap;rounded=0;fontSize=10;" parent="1" vertex="1">
          <mxGeometry x="350" y="449" width="130" height="20" as="geometry" />
        </mxCell>
        <mxCell id="SoAmH-RW295D1ajEGFki-1" value="" style="endArrow=classic;html=1;rounded=0;exitX=1.085;exitY=0.449;exitDx=0;exitDy=0;exitPerimeter=0;entryX=0;entryY=0;entryDx=0;entryDy=0;" edge="1" parent="1">
          <mxGeometry width="50" height="50" relative="1" as="geometry">
            <mxPoint x="145.8499999999999" y="514.5900000000001" as="sourcePoint" />
            <mxPoint x="325" y="514" as="targetPoint" />
          </mxGeometry>
        </mxCell>
        <mxCell id="SoAmH-RW295D1ajEGFki-2" value="" style="endArrow=none;html=1;rounded=0;entryX=0;entryY=1;entryDx=0;entryDy=0;dashed=1;endFill=0;startArrow=open;startFill=0;" edge="1" parent="1">
          <mxGeometry width="50" height="50" relative="1" as="geometry">
            <mxPoint x="146" y="566" as="sourcePoint" />
            <mxPoint x="325" y="566" as="targetPoint" />
          </mxGeometry>
        </mxCell>
        <mxCell id="SoAmH-RW295D1ajEGFki-3" value="&lt;font&gt;3: Ver Voo()&lt;/font&gt;" style="text;html=1;align=center;verticalAlign=middle;whiteSpace=wrap;rounded=0;fontSize=10;" vertex="1" parent="1">
          <mxGeometry x="156" y="496" width="160" height="20" as="geometry" />
        </mxCell>
        <mxCell id="SoAmH-RW295D1ajEGFki-4" value="{Tela Ver Voo}" style="text;html=1;align=center;verticalAlign=middle;whiteSpace=wrap;rounded=0;fontSize=10;" vertex="1" parent="1">
          <mxGeometry x="157.5" y="565" width="155" height="20" as="geometry" />
        </mxCell>
        <mxCell id="SoAmH-RW295D1ajEGFki-5" value="" style="rounded=1;whiteSpace=wrap;html=1;" vertex="1" parent="1">
          <mxGeometry x="325" y="513" width="10" height="52" as="geometry" />
        </mxCell>
        <mxCell id="SoAmH-RW295D1ajEGFki-6" value="" style="rounded=1;whiteSpace=wrap;html=1;" vertex="1" parent="1">
          <mxGeometry x="645" y="602" width="10" height="52" as="geometry" />
        </mxCell>
        <mxCell id="SoAmH-RW295D1ajEGFki-7" value="" style="endArrow=none;dashed=1;html=1;rounded=0;exitX=0.5;exitY=1;exitDx=0;exitDy=0;" edge="1" parent="1">
          <mxGeometry width="50" height="50" relative="1" as="geometry">
            <mxPoint x="649.9" y="654" as="sourcePoint" />
            <mxPoint x="650.07" y="669" as="targetPoint" />
          </mxGeometry>
        </mxCell>
        <mxCell id="SoAmH-RW295D1ajEGFki-8" value="" style="endArrow=none;dashed=1;html=1;rounded=0;exitX=0.5;exitY=1;exitDx=0;exitDy=0;" edge="1" parent="1">
          <mxGeometry width="50" height="50" relative="1" as="geometry">
            <mxPoint x="329.83" y="565" as="sourcePoint" />
            <mxPoint x="330" y="580" as="targetPoint" />
          </mxGeometry>
        </mxCell>
        <mxCell id="SoAmH-RW295D1ajEGFki-9" value="" style="endArrow=classic;html=1;rounded=0;exitX=1.085;exitY=0.449;exitDx=0;exitDy=0;exitPerimeter=0;entryX=0;entryY=0;entryDx=0;entryDy=0;" edge="1" parent="1" target="SoAmH-RW295D1ajEGFki-6">
          <mxGeometry width="50" height="50" relative="1" as="geometry">
            <mxPoint x="332.8499999999999" y="602.0900000000001" as="sourcePoint" />
            <mxPoint x="512" y="601.5" as="targetPoint" />
          </mxGeometry>
        </mxCell>
        <mxCell id="SoAmH-RW295D1ajEGFki-10" value="" style="endArrow=none;html=1;rounded=0;entryX=0;entryY=1;entryDx=0;entryDy=0;dashed=1;endFill=0;startArrow=open;startFill=0;exitX=1;exitY=1;exitDx=0;exitDy=0;" edge="1" parent="1" source="SoAmH-RW295D1ajEGFki-20" target="SoAmH-RW295D1ajEGFki-6">
          <mxGeometry width="50" height="50" relative="1" as="geometry">
            <mxPoint x="333" y="653.5" as="sourcePoint" />
            <mxPoint x="512" y="653.5" as="targetPoint" />
          </mxGeometry>
        </mxCell>
        <mxCell id="SoAmH-RW295D1ajEGFki-11" value="&lt;font&gt;3.2: getVoo()&lt;/font&gt;" style="text;html=1;align=center;verticalAlign=middle;whiteSpace=wrap;rounded=0;fontSize=10;" vertex="1" parent="1">
          <mxGeometry x="516" y="582" width="115" height="20" as="geometry" />
        </mxCell>
        <mxCell id="SoAmH-RW295D1ajEGFki-12" value="{Voo}" style="text;html=1;align=center;verticalAlign=middle;whiteSpace=wrap;rounded=0;fontSize=10;" vertex="1" parent="1">
          <mxGeometry x="516" y="654" width="129" height="20" as="geometry" />
        </mxCell>
        <mxCell id="SoAmH-RW295D1ajEGFki-13" value="Voo" style="rounded=0;whiteSpace=wrap;html=1;" vertex="1" parent="1">
          <mxGeometry x="590" y="215" width="120" height="50" as="geometry" />
        </mxCell>
        <mxCell id="SoAmH-RW295D1ajEGFki-15" value="" style="endArrow=none;dashed=1;html=1;rounded=0;exitX=0.5;exitY=1;exitDx=0;exitDy=0;entryX=0.5;entryY=0;entryDx=0;entryDy=0;" edge="1" parent="1" target="SoAmH-RW295D1ajEGFki-20">
          <mxGeometry width="50" height="50" relative="1" as="geometry">
            <mxPoint x="499.89" y="265" as="sourcePoint" />
            <mxPoint x="500" y="590" as="targetPoint" />
          </mxGeometry>
        </mxCell>
        <mxCell id="SoAmH-RW295D1ajEGFki-16" value="" style="endArrow=classic;html=1;rounded=0;entryX=0;entryY=0;entryDx=0;entryDy=0;" edge="1" parent="1" target="SoAmH-RW295D1ajEGFki-20">
          <mxGeometry width="50" height="50" relative="1" as="geometry">
            <mxPoint x="146" y="602" as="sourcePoint" />
            <mxPoint x="324.15" y="603" as="targetPoint" />
          </mxGeometry>
        </mxCell>
        <mxCell id="SoAmH-RW295D1ajEGFki-17" value="" style="endArrow=none;html=1;rounded=0;entryX=0;entryY=1;entryDx=0;entryDy=0;dashed=1;endFill=0;startArrow=open;startFill=0;" edge="1" parent="1" target="SoAmH-RW295D1ajEGFki-20">
          <mxGeometry width="50" height="50" relative="1" as="geometry">
            <mxPoint x="145.15" y="655" as="sourcePoint" />
            <mxPoint x="324.15" y="655" as="targetPoint" />
          </mxGeometry>
        </mxCell>
        <mxCell id="SoAmH-RW295D1ajEGFki-18" value="&lt;font&gt;3.1: Inicializar Tela()&lt;/font&gt;" style="text;html=1;align=center;verticalAlign=middle;whiteSpace=wrap;rounded=0;fontSize=10;" vertex="1" parent="1">
          <mxGeometry x="240" y="585" width="160" height="20" as="geometry" />
        </mxCell>
        <mxCell id="SoAmH-RW295D1ajEGFki-19" value="{Voo}" style="text;html=1;align=center;verticalAlign=middle;whiteSpace=wrap;rounded=0;fontSize=10;" vertex="1" parent="1">
          <mxGeometry x="240" y="654" width="155" height="20" as="geometry" />
        </mxCell>
        <mxCell id="SoAmH-RW295D1ajEGFki-20" value="" style="rounded=1;whiteSpace=wrap;html=1;" vertex="1" parent="1">
          <mxGeometry x="495" y="602" width="10" height="52" as="geometry" />
        </mxCell>
        <mxCell id="SoAmH-RW295D1ajEGFki-21" value="" style="endArrow=none;dashed=1;html=1;rounded=0;exitX=0.5;exitY=1;exitDx=0;exitDy=0;" edge="1" parent="1">
          <mxGeometry width="50" height="50" relative="1" as="geometry">
            <mxPoint x="649.9" y="654" as="sourcePoint" />
            <mxPoint x="650.07" y="669" as="targetPoint" />
          </mxGeometry>
        </mxCell>
        <mxCell id="SoAmH-RW295D1ajEGFki-22" value="" style="endArrow=none;dashed=1;html=1;rounded=0;exitX=0.5;exitY=1;exitDx=0;exitDy=0;" edge="1" parent="1">
          <mxGeometry width="50" height="50" relative="1" as="geometry">
            <mxPoint x="499.83" y="654" as="sourcePoint" />
            <mxPoint x="500.00000000000006" y="669" as="targetPoint" />
          </mxGeometry>
        </mxCell>
      </root>
    </mxGraphModel>
  </diagram>
</mxfile>
